<svg width="368" height="56" viewBox="0 0 368 56" fill="none" xmlns="http://www.w3.org/2000/svg">
<rect width="368" height="56" rx="28" fill="#F3F5F7"/>
<rect x="2" y="2" width="169" height="52" rx="26" fill="#F3F5F7"/>
<path d="M50.4976 35L47.2176 23.08H49.2176L51.8736 33.4H51.3776L54.1296 23.08H56.0976L58.8496 33.4H58.3376L61.0096 23.08H62.9936L59.7296 35H57.6016L54.8336 24.84H55.3936L52.6096 35H50.4976ZM63.9026 35V26.344H65.7106V35H63.9026ZM63.9026 25.16V23.08H65.7106V25.16H63.9026ZM71.2484 35.096C70.3418 35.096 69.6378 34.84 69.1364 34.328C68.6351 33.816 68.3844 33.096 68.3844 32.168V27.976H66.8644V26.344H67.1044C67.5098 26.344 67.8244 26.2267 68.0484 25.992C68.2724 25.7573 68.3844 25.4373 68.3844 25.032V24.36H70.1924V26.344H72.1604V27.976H70.1924V32.088C70.1924 32.3867 70.2404 32.6427 70.3364 32.856C70.4324 33.0587 70.5871 33.2187 70.8004 33.336C71.0138 33.4427 71.2911 33.496 71.6324 33.496C71.7178 33.496 71.8138 33.4907 71.9204 33.48C72.0271 33.4693 72.1284 33.4587 72.2244 33.448V35C72.0751 35.0213 71.9098 35.0427 71.7284 35.064C71.5471 35.0853 71.3871 35.096 71.2484 35.096ZM73.6688 35V22.888H75.4768V28.04L75.1888 27.816C75.4021 27.272 75.7435 26.8613 76.2128 26.584C76.6821 26.296 77.2261 26.152 77.8448 26.152C78.4848 26.152 79.0501 26.2907 79.5408 26.568C80.0315 26.8453 80.4155 27.2293 80.6928 27.72C80.9701 28.2107 81.1088 28.7707 81.1088 29.4V35H79.3168V29.896C79.3168 29.4587 79.2315 29.0907 79.0608 28.792C78.9008 28.4827 78.6768 28.248 78.3888 28.088C78.1008 27.9173 77.7701 27.832 77.3968 27.832C77.0341 27.832 76.7035 27.9173 76.4048 28.088C76.1168 28.248 75.8875 28.4827 75.7168 28.792C75.5568 29.1013 75.4768 29.4693 75.4768 29.896V35H73.6688ZM87.8536 35V23.08H91.7576C92.9949 23.08 94.0669 23.3307 94.9736 23.832C95.8909 24.3227 96.6002 25.016 97.1016 25.912C97.6029 26.808 97.8536 27.848 97.8536 29.032C97.8536 30.2053 97.6029 31.2453 97.1016 32.152C96.6002 33.048 95.8909 33.7467 94.9736 34.248C94.0669 34.7493 92.9949 35 91.7576 35H87.8536ZM89.7416 33.32H91.7896C92.6322 33.32 93.3629 33.144 93.9816 32.792C94.6109 32.44 95.0962 31.944 95.4376 31.304C95.7789 30.664 95.9496 29.9067 95.9496 29.032C95.9496 28.1573 95.7736 27.4053 95.4216 26.776C95.0802 26.136 94.6002 25.64 93.9816 25.288C93.3629 24.936 92.6322 24.76 91.7896 24.76H89.7416V33.32ZM99.2169 35V26.344H101.025V35H99.2169ZM99.2169 25.16V23.08H101.025V25.16H99.2169ZM102.819 35V26.344H104.547V28.216L104.323 27.928C104.504 27.3413 104.835 26.8987 105.315 26.6C105.795 26.3013 106.344 26.152 106.963 26.152C107.656 26.152 108.269 26.3387 108.803 26.712C109.347 27.0747 109.709 27.56 109.891 28.168L109.379 28.216C109.635 27.5227 110.024 27.0053 110.547 26.664C111.08 26.3227 111.688 26.152 112.371 26.152C112.968 26.152 113.507 26.2907 113.987 26.568C114.477 26.8453 114.867 27.2293 115.155 27.72C115.443 28.2107 115.587 28.7707 115.587 29.4V35H113.779V29.896C113.779 29.4587 113.699 29.0907 113.539 28.792C113.389 28.4827 113.176 28.248 112.899 28.088C112.632 27.9173 112.317 27.832 111.955 27.832C111.592 27.832 111.272 27.9173 110.995 28.088C110.717 28.248 110.499 28.4827 110.339 28.792C110.179 29.1013 110.099 29.4693 110.099 29.896V35H108.307V29.896C108.307 29.4587 108.227 29.0907 108.067 28.792C107.917 28.4827 107.704 28.248 107.427 28.088C107.16 27.9173 106.84 27.832 106.467 27.832C106.104 27.832 105.784 27.9173 105.507 28.088C105.229 28.248 105.011 28.4827 104.851 28.792C104.701 29.1013 104.627 29.4693 104.627 29.896V35H102.819ZM121.266 35.192C120.402 35.192 119.634 34.9947 118.962 34.6C118.301 34.1947 117.783 33.6507 117.41 32.968C117.037 32.2747 116.85 31.5013 116.85 30.648C116.85 29.7733 117.037 29 117.41 28.328C117.794 27.656 118.306 27.128 118.946 26.744C119.586 26.3493 120.311 26.152 121.122 26.152C121.773 26.152 122.354 26.264 122.866 26.488C123.378 26.712 123.81 27.0213 124.162 27.416C124.514 27.8 124.781 28.2427 124.962 28.744C125.154 29.2453 125.25 29.7787 125.25 30.344C125.25 30.4827 125.245 30.6267 125.234 30.776C125.223 30.9253 125.202 31.064 125.17 31.192H118.274V29.752H124.146L123.282 30.408C123.389 29.8853 123.351 29.4213 123.17 29.016C122.999 28.6 122.733 28.2747 122.37 28.04C122.018 27.7947 121.602 27.672 121.122 27.672C120.642 27.672 120.215 27.7947 119.842 28.04C119.469 28.2747 119.181 28.616 118.978 29.064C118.775 29.5013 118.695 30.0347 118.738 30.664C118.685 31.2507 118.765 31.7627 118.978 32.2C119.202 32.6373 119.511 32.9787 119.906 33.224C120.311 33.4693 120.77 33.592 121.282 33.592C121.805 33.592 122.247 33.4747 122.61 33.24C122.983 33.0053 123.277 32.7013 123.49 32.328L124.962 33.048C124.791 33.4533 124.525 33.8213 124.162 34.152C123.81 34.472 123.383 34.728 122.882 34.92C122.391 35.1013 121.853 35.192 121.266 35.192Z" fill="#90A3BF"/>
<rect x="171" y="2" width="195" height="52" rx="26" fill="#7D286D"/>
<path d="M221.06 35L217.78 23.08H219.78L222.436 33.4H221.94L224.692 23.08H226.66L229.412 33.4H228.9L231.572 23.08H233.556L230.292 35H228.164L225.396 24.84H225.956L223.172 35H221.06ZM234.465 35V26.344H236.273V35H234.465ZM234.465 25.16V23.08H236.273V25.16H234.465ZM241.811 35.096C240.904 35.096 240.2 34.84 239.699 34.328C239.197 33.816 238.947 33.096 238.947 32.168V27.976H237.427V26.344H237.667C238.072 26.344 238.387 26.2267 238.611 25.992C238.835 25.7573 238.947 25.4373 238.947 25.032V24.36H240.755V26.344H242.723V27.976H240.755V32.088C240.755 32.3867 240.803 32.6427 240.899 32.856C240.995 33.0587 241.149 33.2187 241.363 33.336C241.576 33.4427 241.853 33.496 242.195 33.496C242.28 33.496 242.376 33.4907 242.483 33.48C242.589 33.4693 242.691 33.4587 242.787 33.448V35C242.637 35.0213 242.472 35.0427 242.291 35.064C242.109 35.0853 241.949 35.096 241.811 35.096ZM244.231 35V22.888H246.039V28.04L245.751 27.816C245.964 27.272 246.306 26.8613 246.775 26.584C247.244 26.296 247.788 26.152 248.407 26.152C249.047 26.152 249.612 26.2907 250.103 26.568C250.594 26.8453 250.978 27.2293 251.255 27.72C251.532 28.2107 251.671 28.7707 251.671 29.4V35H249.879V29.896C249.879 29.4587 249.794 29.0907 249.623 28.792C249.463 28.4827 249.239 28.248 248.951 28.088C248.663 27.9173 248.332 27.832 247.959 27.832C247.596 27.832 247.266 27.9173 246.967 28.088C246.679 28.248 246.45 28.4827 246.279 28.792C246.119 29.1013 246.039 29.4693 246.039 29.896V35H244.231ZM257.462 35.192C256.63 35.192 255.867 34.9947 255.174 34.6C254.491 34.2053 253.947 33.6667 253.542 32.984C253.137 32.3013 252.934 31.528 252.934 30.664C252.934 29.7893 253.137 29.016 253.542 28.344C253.947 27.6613 254.491 27.128 255.174 26.744C255.857 26.3493 256.619 26.152 257.462 26.152C258.315 26.152 259.078 26.3493 259.75 26.744C260.433 27.128 260.971 27.6613 261.366 28.344C261.771 29.016 261.974 29.7893 261.974 30.664C261.974 31.5387 261.771 32.3173 261.366 33C260.961 33.6827 260.417 34.2213 259.734 34.616C259.051 35 258.294 35.192 257.462 35.192ZM257.462 33.512C257.974 33.512 258.427 33.3893 258.822 33.144C259.217 32.8987 259.526 32.5627 259.75 32.136C259.985 31.6987 260.102 31.208 260.102 30.664C260.102 30.12 259.985 29.6347 259.75 29.208C259.526 28.7813 259.217 28.4453 258.822 28.2C258.427 27.9547 257.974 27.832 257.462 27.832C256.961 27.832 256.507 27.9547 256.102 28.2C255.707 28.4453 255.393 28.7813 255.158 29.208C254.934 29.6347 254.822 30.12 254.822 30.664C254.822 31.208 254.934 31.6987 255.158 32.136C255.393 32.5627 255.707 32.8987 256.102 33.144C256.507 33.3893 256.961 33.512 257.462 33.512ZM266.507 35.192C265.856 35.192 265.286 35.048 264.795 34.76C264.304 34.4613 263.92 34.0507 263.643 33.528C263.376 32.9947 263.243 32.3813 263.243 31.688V26.344H265.051V31.528C265.051 31.9227 265.131 32.2693 265.291 32.568C265.451 32.8667 265.675 33.1013 265.963 33.272C266.251 33.432 266.582 33.512 266.955 33.512C267.339 33.512 267.675 33.4267 267.963 33.256C268.251 33.0853 268.475 32.8453 268.635 32.536C268.806 32.2267 268.891 31.864 268.891 31.448V26.344H270.683V35H268.971V33.304L269.163 33.528C268.96 34.0613 268.624 34.472 268.155 34.76C267.686 35.048 267.136 35.192 266.507 35.192ZM276.218 35.096C275.311 35.096 274.607 34.84 274.106 34.328C273.605 33.816 273.354 33.096 273.354 32.168V27.976H271.834V26.344H272.074C272.479 26.344 272.794 26.2267 273.018 25.992C273.242 25.7573 273.354 25.4373 273.354 25.032V24.36H275.162V26.344H277.13V27.976H275.162V32.088C275.162 32.3867 275.21 32.6427 275.306 32.856C275.402 33.0587 275.557 33.2187 275.77 33.336C275.983 33.4427 276.261 33.496 276.602 33.496C276.687 33.496 276.783 33.4907 276.89 33.48C276.997 33.4693 277.098 33.4587 277.194 33.448V35C277.045 35.0213 276.879 35.0427 276.698 35.064C276.517 35.0853 276.357 35.096 276.218 35.096ZM281.291 35V23.08H285.195C286.433 23.08 287.505 23.3307 288.411 23.832C289.329 24.3227 290.038 25.016 290.539 25.912C291.041 26.808 291.291 27.848 291.291 29.032C291.291 30.2053 291.041 31.2453 290.539 32.152C290.038 33.048 289.329 33.7467 288.411 34.248C287.505 34.7493 286.433 35 285.195 35H281.291ZM283.179 33.32H285.227C286.07 33.32 286.801 33.144 287.419 32.792C288.049 32.44 288.534 31.944 288.875 31.304C289.217 30.664 289.387 29.9067 289.387 29.032C289.387 28.1573 289.211 27.4053 288.859 26.776C288.518 26.136 288.038 25.64 287.419 25.288C286.801 24.936 286.07 24.76 285.227 24.76H283.179V33.32ZM292.655 35V26.344H294.463V35H292.655ZM292.655 25.16V23.08H294.463V25.16H292.655ZM296.257 35V26.344H297.985V28.216L297.761 27.928C297.942 27.3413 298.273 26.8987 298.753 26.6C299.233 26.3013 299.782 26.152 300.401 26.152C301.094 26.152 301.707 26.3387 302.241 26.712C302.785 27.0747 303.147 27.56 303.329 28.168L302.817 28.216C303.073 27.5227 303.462 27.0053 303.985 26.664C304.518 26.3227 305.126 26.152 305.809 26.152C306.406 26.152 306.945 26.2907 307.425 26.568C307.915 26.8453 308.305 27.2293 308.593 27.72C308.881 28.2107 309.025 28.7707 309.025 29.4V35H307.217V29.896C307.217 29.4587 307.137 29.0907 306.977 28.792C306.827 28.4827 306.614 28.248 306.337 28.088C306.07 27.9173 305.755 27.832 305.393 27.832C305.03 27.832 304.71 27.9173 304.433 28.088C304.155 28.248 303.937 28.4827 303.777 28.792C303.617 29.1013 303.537 29.4693 303.537 29.896V35H301.745V29.896C301.745 29.4587 301.665 29.0907 301.505 28.792C301.355 28.4827 301.142 28.248 300.865 28.088C300.598 27.9173 300.278 27.832 299.905 27.832C299.542 27.832 299.222 27.9173 298.945 28.088C298.667 28.248 298.449 28.4827 298.289 28.792C298.139 29.1013 298.065 29.4693 298.065 29.896V35H296.257ZM314.704 35.192C313.84 35.192 313.072 34.9947 312.4 34.6C311.738 34.1947 311.221 33.6507 310.848 32.968C310.474 32.2747 310.288 31.5013 310.288 30.648C310.288 29.7733 310.474 29 310.848 28.328C311.232 27.656 311.744 27.128 312.384 26.744C313.024 26.3493 313.749 26.152 314.56 26.152C315.21 26.152 315.792 26.264 316.304 26.488C316.816 26.712 317.248 27.0213 317.6 27.416C317.952 27.8 318.218 28.2427 318.4 28.744C318.592 29.2453 318.688 29.7787 318.688 30.344C318.688 30.4827 318.682 30.6267 318.672 30.776C318.661 30.9253 318.64 31.064 318.608 31.192H311.712V29.752H317.584L316.72 30.408C316.826 29.8853 316.789 29.4213 316.608 29.016C316.437 28.6 316.17 28.2747 315.808 28.04C315.456 27.7947 315.04 27.672 314.56 27.672C314.08 27.672 313.653 27.7947 313.28 28.04C312.906 28.2747 312.618 28.616 312.416 29.064C312.213 29.5013 312.133 30.0347 312.176 30.664C312.122 31.2507 312.202 31.7627 312.416 32.2C312.64 32.6373 312.949 32.9787 313.344 33.224C313.749 33.4693 314.208 33.592 314.72 33.592C315.242 33.592 315.685 33.4747 316.048 33.24C316.421 33.0053 316.714 32.7013 316.928 32.328L318.4 33.048C318.229 33.4533 317.962 33.8213 317.6 34.152C317.248 34.472 316.821 34.728 316.32 34.92C315.829 35.1013 315.29 35.192 314.704 35.192Z" fill="white"/>
</svg>
